# xmcd CD database file
#
# Track frame offsets:
#	150
#	13525
#	29500
#	42892
#	58665
#	72442
#	88752
#	101970
#	117790
#	134845
#	148395
#	162068
#	177600
#	190238
#	202150
#	218995
#	231072
#	247495
#	264387
#	277320
#	291995
#
# Disc length: 4092 seconds
#
# Revision: 0
# Processed by: cddbd v1.5.1PL0 Copyright (c) Steve Scherf et al.
# Submitted via: CDex 1.51
#
DISCID=620ffa15
DTITLE=Billie Holiday - Yesterdays
DYEAR=1952
DGENRE=Jazz
TTITLE0=East of the Sun
TTITLE1=Blue Moon
TTITLE2=You Go To My Head
TTITLE3=You Turned the Tables On Me
TTITLE4=Easy To Love
TTITLE5=These Foolish Things
TTITLE6=I Only Have Eyes For You
TTITLE7=Solitude
TTITLE8=Everything Have Is Yours
TTITLE9=Love For Sale
TTITLE10=Moonglow
TTITLE11=Tenderly
TTITLE12=If The Moon Turns Green
TTITLE13=Remember
TTITLE14=Autumn In New York
TTITLE15=My Man
TTITLE16=Lover Come Back To Me
TTITLE17=Stormy Weather
TTITLE18=Yesterdays
TTITLE19=He's Funny That Way
TTITLE20=I Can;t Face The Music
EXTD=YEAR: 1952
EXTT0=
EXTT1=
EXTT2=
EXTT3=
EXTT4=
EXTT5=
EXTT6=
EXTT7=
EXTT8=
EXTT9=
EXTT10=
EXTT11=
EXTT12=
EXTT13=
EXTT14=
EXTT15=
EXTT16=
EXTT17=
EXTT18=
EXTT19=
EXTT20=
PLAYORDER=
